<svg width="450" height="313" viewBox="0 0 450 313" fill="none" xmlns="http://www.w3.org/2000/svg">
<g clip-path="url(#clip0_164_600)">
<path d="M89.6595 313C139.177 313 179.319 309.952 179.319 306.192C179.319 302.433 139.177 299.385 89.6595 299.385C40.1419 299.385 0 302.433 0 306.192C0 309.952 40.1419 313 89.6595 313Z" fill="#E6E6E6"/>
<path d="M68.5341 69.4492C84.1375 62.8144 103.572 67.0181 122.552 69.9357C122.728 66.4025 124.869 62.1024 122.627 59.6375C119.902 56.6428 120.153 53.4962 121.792 50.3315C125.985 42.2389 119.978 33.628 113.913 26.468C112.547 24.8579 110.819 23.5927 108.871 22.7754C106.923 21.958 104.81 21.6116 102.703 21.7641L91.4686 22.5663C88.7348 22.7615 86.1259 23.7867 83.9909 25.5048C81.8559 27.2228 80.2966 29.5517 79.5218 32.1799C76.8392 35.8272 75.4035 39.4644 76.3074 43.0827C72.2894 45.8278 71.6143 49.1414 73.4199 52.8769C74.9509 55.2289 74.9346 57.5183 73.3502 59.7444C71.2695 62.5825 69.6758 65.7471 68.6345 69.1084L68.5341 69.4492Z" fill="#2F2E41"/>
<path d="M439.337 270.584H121.319C118.491 270.584 115.779 269.46 113.779 267.461C111.779 265.462 110.656 262.751 110.656 259.923C225.937 246.529 339.052 246.529 450 259.923C450 262.751 448.877 265.462 446.877 267.461C444.877 269.46 442.165 270.584 439.337 270.584Z" fill="#2F2E41"/>
<path d="M450 260.55L110.656 259.923L149.985 193.767L150.173 193.453V47.6515C150.173 45.8818 150.521 44.1294 151.199 42.4944C151.876 40.8593 152.869 39.3737 154.12 38.1223C155.372 36.8709 156.858 35.8783 158.494 35.2011C160.129 34.524 161.882 34.1755 163.652 34.1757H395.122C396.892 34.1755 398.645 34.524 400.28 35.2011C401.916 35.8783 403.402 36.8709 404.653 38.1223C405.905 39.3737 406.898 40.8593 407.575 42.4944C408.253 44.1294 408.601 45.8818 408.601 47.6515V194.456L450 260.55Z" fill="#3F3D56"/>
<path d="M163.345 43.5818C162.181 43.5831 161.065 44.046 160.242 44.8689C159.419 45.6918 158.956 46.8075 158.954 47.9713V180.912C158.956 182.075 159.419 183.191 160.242 184.014C161.065 184.837 162.181 185.3 163.345 185.301H397.311C398.475 185.3 399.591 184.837 400.414 184.014C401.237 183.191 401.7 182.075 401.701 180.912V47.9713C401.7 46.8076 401.237 45.6919 400.414 44.869C399.591 44.0461 398.475 43.5831 397.311 43.5818H163.345Z" fill="white"/>
<path d="M164.325 202.859C163.966 202.86 163.614 202.963 163.311 203.157C163.008 203.351 162.767 203.628 162.616 203.954L150.497 230.291C150.365 230.578 150.308 230.893 150.33 231.208C150.351 231.523 150.452 231.827 150.622 232.093C150.793 232.358 151.027 232.577 151.304 232.728C151.581 232.88 151.891 232.959 152.207 232.959H407.051C407.372 232.959 407.687 232.877 407.967 232.721C408.247 232.565 408.483 232.339 408.652 232.067C408.82 231.794 408.916 231.482 408.931 231.162C408.945 230.842 408.877 230.523 408.734 230.236L395.561 203.899C395.406 203.586 395.166 203.323 394.868 203.139C394.571 202.955 394.228 202.858 393.879 202.859H164.325Z" fill="#2F2E41"/>
<path d="M279.387 41.3871C280.946 41.3871 282.21 40.1237 282.21 38.5652C282.21 37.0068 280.946 35.7434 279.387 35.7434C277.828 35.7434 276.564 37.0068 276.564 38.5652C276.564 40.1237 277.828 41.3871 279.387 41.3871Z" fill="white"/>
<path d="M254.338 237.975C253.924 237.976 253.522 238.113 253.194 238.364C252.866 238.616 252.629 238.968 252.521 239.367L249.481 250.655C249.406 250.934 249.396 251.226 249.452 251.509C249.508 251.793 249.629 252.059 249.804 252.288C249.98 252.518 250.206 252.703 250.465 252.831C250.724 252.959 251.009 253.025 251.298 253.025H309.108C309.408 253.025 309.704 252.954 309.97 252.816C310.237 252.679 310.467 252.479 310.641 252.235C310.815 251.991 310.928 251.708 310.97 251.412C311.013 251.115 310.984 250.812 310.886 250.529L306.978 239.241C306.849 238.872 306.609 238.551 306.291 238.324C305.972 238.098 305.591 237.976 305.199 237.975H254.338Z" fill="#2F2E41"/>
<path d="M408.601 191.258V193.766H149.984L150.179 193.453V191.258H408.601Z" fill="#2F2E41"/>
<path d="M401.388 87.7907C425.637 87.7907 445.296 68.1381 445.296 43.8953C445.296 19.6526 425.637 0 401.388 0C377.138 0 357.48 19.6526 357.48 43.8953C357.48 68.1381 377.138 87.7907 401.388 87.7907Z" fill="#84B6F4"/>
<path d="M419.578 63.0212H383.197C382.532 63.0205 381.894 62.756 381.424 62.2858C380.954 61.8155 380.689 61.1779 380.688 60.5129V38.5652C380.689 37.9002 380.954 37.2626 381.424 36.7923C381.895 36.3221 382.532 36.0576 383.197 36.0569H419.578C420.243 36.0576 420.881 36.3221 421.352 36.7923C421.822 37.2626 422.087 37.9002 422.087 38.5652V60.5129C422.087 61.1779 421.822 61.8155 421.352 62.2858C420.881 62.756 420.243 63.0205 419.578 63.0212ZM383.197 38.5652V60.5129H419.58L419.578 38.5652L383.197 38.5652Z" fill="white"/>
<path d="M412.678 38.5652H390.097V28.532C390.097 21.2649 394.846 15.9905 401.388 15.9905C407.93 15.9905 412.678 21.2649 412.678 28.532L412.678 38.5652ZM392.606 36.0569H410.169V28.532C410.169 22.6247 406.558 18.4988 401.388 18.4988C396.217 18.4988 392.606 22.6247 392.606 28.532L392.606 36.0569Z" fill="white"/>
<path d="M401.388 51.4203C402.774 51.4203 403.897 50.2973 403.897 48.912C403.897 47.5267 402.774 46.4037 401.388 46.4037C400.002 46.4037 398.879 47.5267 398.879 48.912C398.879 50.2973 400.002 51.4203 401.388 51.4203Z" fill="white"/>
<path d="M370.736 140.209H189.919C189.032 140.208 188.18 139.855 187.553 139.227C186.925 138.6 186.572 137.749 186.571 136.862V92.0212C186.572 91.1337 186.925 90.2829 187.553 89.6553C188.18 89.0278 189.032 88.6747 189.919 88.6737H370.736C371.624 88.6747 372.475 89.0278 373.103 89.6553C373.731 90.2829 374.084 91.1337 374.085 92.0212V136.862C374.084 137.749 373.731 138.6 373.103 139.227C372.475 139.855 371.624 140.208 370.736 140.209ZM189.919 90.0127C189.387 90.0133 188.876 90.2251 188.499 90.6017C188.123 90.9782 187.911 91.4887 187.91 92.0212V136.862C187.911 137.394 188.123 137.905 188.499 138.281C188.876 138.658 189.387 138.869 189.919 138.87H370.736C371.269 138.869 371.78 138.658 372.156 138.281C372.533 137.905 372.745 137.394 372.745 136.862V92.0212C372.745 91.4887 372.533 90.9782 372.156 90.6016C371.78 90.2251 371.269 90.0133 370.736 90.0127L189.919 90.0127Z" fill="#E6E6E6"/>
<path d="M218.015 126.357C225.548 126.357 231.654 120.252 231.654 112.721C231.654 105.19 225.548 99.085 218.015 99.085C210.482 99.085 204.375 105.19 204.375 112.721C204.375 120.252 210.482 126.357 218.015 126.357Z" fill="#E6E6E6"/>
<path d="M249.516 103.63C249.217 103.63 248.921 103.688 248.645 103.802C248.369 103.916 248.118 104.084 247.906 104.295C247.695 104.506 247.527 104.756 247.413 105.032C247.298 105.308 247.239 105.604 247.239 105.903C247.239 106.202 247.298 106.497 247.413 106.773C247.527 107.049 247.695 107.3 247.906 107.511C248.118 107.722 248.369 107.89 248.645 108.004C248.921 108.118 249.217 108.176 249.516 108.176H356.686C357.289 108.176 357.868 107.936 358.294 107.51C358.72 107.084 358.96 106.506 358.96 105.903C358.96 105.3 358.72 104.722 358.294 104.296C357.868 103.87 357.289 103.63 356.686 103.63H249.516Z" fill="#E6E6E6"/>
<path d="M249.516 117.266C248.913 117.266 248.335 117.506 247.909 117.932C247.482 118.358 247.243 118.936 247.243 119.539C247.243 120.142 247.482 120.72 247.909 121.146C248.335 121.572 248.913 121.812 249.516 121.812H295.632C296.235 121.812 296.813 121.572 297.239 121.146C297.666 120.72 297.905 120.142 297.905 119.539C297.905 118.936 297.666 118.358 297.239 117.932C296.813 117.506 296.235 117.266 295.632 117.266H249.516Z" fill="#E6E6E6"/>
<path d="M149.54 118.186L116.114 135.951L115.691 121.146C126.601 119.326 136.98 116.156 146.578 110.995L150.074 102.36C150.455 101.419 151.074 100.594 151.87 99.9645C152.667 99.3351 153.613 98.9235 154.617 98.7703C155.621 98.6171 156.647 98.7274 157.595 99.0905C158.543 99.4536 159.381 100.057 160.025 100.841C160.968 101.989 161.439 103.452 161.344 104.934C161.248 106.416 160.592 107.806 159.509 108.823L149.54 118.186Z" fill="#FFB8B8"/>
<path d="M67.8678 220.757C67.624 219.863 67.5722 218.927 67.7159 218.012C67.8596 217.096 68.1955 216.222 68.7016 215.445L76.0442 204.18C77.7809 201.515 80.4457 199.591 83.5217 198.779C86.5976 197.968 89.8653 198.328 92.6908 199.789C89.6049 205.041 90.0351 209.647 93.7565 213.651C87.9794 216.47 82.64 220.109 77.9038 224.455C77.0391 225.044 76.0462 225.418 75.0076 225.546C73.969 225.674 72.9148 225.552 71.9329 225.191C70.951 224.829 70.0699 224.238 69.3627 223.466C68.6556 222.695 68.1431 221.766 67.8678 220.757Z" fill="#2F2E41"/>
<path d="M151.062 206.027C149.951 207.879 148.382 209.413 146.507 210.484C144.632 211.555 142.513 212.126 140.353 212.142L91.5739 212.512L89.4584 200.245L111.037 193.9L92.8433 179.942L112.729 156.677L148.848 190.332C150.959 192.3 152.331 194.931 152.734 197.788C153.137 200.645 152.547 203.553 151.062 206.027Z" fill="#2F2E41"/>
<path d="M83.958 289.918H72.5341C62.2771 219.631 51.8365 149.146 82.6887 122.839L119.076 128.76L114.422 159.638L94.1126 182.903L83.958 289.918Z" fill="#2F2E41"/>
<path d="M94.0002 305.841C93.1059 306.085 92.17 306.136 91.2543 305.993C90.3385 305.849 89.4635 305.513 88.6869 305.008L76.2829 303.341C73.6175 301.605 71.6922 298.941 70.8805 295.866C70.0688 292.791 70.4286 289.524 71.8902 286.699C77.1431 289.784 81.751 289.353 85.7553 285.633C88.5847 291.344 93.2464 290.996 97.6985 295.807C98.288 296.672 98.6624 297.664 98.7904 298.703C98.9185 299.741 98.7965 300.795 98.4347 301.776C98.0729 302.758 97.4816 303.639 96.7103 304.346C95.9389 305.053 95.0097 305.565 94.0002 305.841Z" fill="#2F2E41"/>
<path d="M111.037 75.8868L89.8815 70.811C93.3951 63.621 93.6844 55.6207 91.997 47.1237L106.383 46.7007C106.833 57.267 108.197 67.1385 111.037 75.8868Z" fill="#FFB8B8"/>
<path d="M116.851 141.496C101.451 151.987 90.5694 141.855 82.2656 126.222C83.4194 116.657 81.5511 105.209 78.0909 92.7705C76.552 87.2842 77.1265 81.4205 79.7011 76.337C82.2756 71.2535 86.6629 67.3197 91.997 65.3123L110.191 72.9261C125.639 85.5148 128.68 99.1509 122.884 113.533L116.851 141.496Z" fill="#84B6F4"/>
<path d="M72.5341 86.4616L55.6098 95.3443L85.6504 113.11L89.8304 123.417C90.1094 124.105 90.2453 124.843 90.2298 125.585C90.2144 126.327 90.0479 127.059 89.7405 127.734C89.4331 128.41 88.9913 129.016 88.4419 129.516C87.8926 130.015 87.2472 130.398 86.5452 130.64C85.7472 130.915 84.8963 131.002 84.0592 130.893C83.2221 130.784 82.4215 130.484 81.7201 130.014C81.0187 129.545 80.4355 128.919 80.0162 128.187C79.597 127.454 79.353 126.635 79.3034 125.792L78.8807 118.609L40.6995 106.012C39.4131 105.588 38.2401 104.876 37.2695 103.932C36.2989 102.987 35.556 101.834 35.0971 100.56C34.4283 98.7024 34.3942 96.6758 35.0003 94.797C35.6064 92.9182 36.8184 91.2934 38.4467 90.1766L69.1493 69.1191L72.5341 86.4616Z" fill="#FFB8B8"/>
<path d="M89.4584 88.1535C82.3999 85.061 75.9815 88.4203 67.88 91.1144L66.6107 68.6961C74.6551 64.4097 82.325 63.254 89.4584 66.5811L89.4584 88.1535Z" fill="#84B6F4"/>
<path d="M97.902 57.8053C105.362 57.8053 111.409 51.7598 111.409 44.3022C111.409 36.8447 105.362 30.7992 97.902 30.7992C90.4423 30.7992 84.3951 36.8447 84.3951 44.3022C84.3951 51.7598 90.4423 57.8053 97.902 57.8053Z" fill="#FFB8B8"/>
<path d="M114.061 42.5985C100.688 43.9079 90.4974 41.7215 83.9849 35.4959V30.4822H112.926L114.061 42.5985Z" fill="#2F2E41"/>
</g>
<defs>
<clipPath id="clip0_164_600">
<rect width="450" height="313" fill="white"/>
</clipPath>
</defs>
</svg>
